<svg width="213" height="170" viewBox="0 0 213 170" fill="none" xmlns="http://www.w3.org/2000/svg">
<g clip-path="url(#clip0_3011_7397)">
<path d="M175.847 152.017C175.863 151.99 175.881 151.963 175.9 151.938C175.948 151.826 176.007 151.72 176.078 151.622L181.961 143.396L186.809 136.622H195.077L194.492 137.437L193.452 138.893L190.227 143.399L183.318 153.057L189.722 165.914C189.984 166.438 189.537 167.19 188.731 167.592L185.642 169.13C185.335 169.286 184.997 169.371 184.653 169.378C184.218 169.378 183.855 169.216 183.703 168.91L175.741 152.926C175.679 152.778 175.655 152.617 175.674 152.458C175.692 152.298 175.752 152.146 175.847 152.017Z" fill="#E5E5E5"/>
<path d="M186.973 151.524L178.644 148.431C178.266 148.29 177.96 148.006 177.792 147.64C177.624 147.273 177.608 146.856 177.748 146.478L180.191 139.906C180.332 139.529 180.617 139.223 180.983 139.055C181.35 138.887 181.768 138.872 182.146 139.012L190.475 142.104C190.852 142.245 191.159 142.53 191.326 142.896C191.494 143.262 191.51 143.68 191.37 144.057L188.927 150.629C188.857 150.816 188.752 150.988 188.616 151.134C188.48 151.28 188.317 151.398 188.135 151.481C187.954 151.564 187.758 151.611 187.558 151.618C187.359 151.625 187.16 151.593 186.973 151.524Z" fill="#2F2E41"/>
<path d="M179.89 147.871C179.834 147.871 179.778 147.861 179.726 147.841C179.61 147.797 179.516 147.709 179.465 147.596C179.414 147.483 179.41 147.355 179.453 147.239L182.512 139.15C182.555 139.034 182.644 138.941 182.757 138.89C182.87 138.839 182.998 138.835 183.114 138.878C183.23 138.922 183.324 139.01 183.375 139.123C183.426 139.236 183.43 139.365 183.387 139.481L180.328 147.569C180.295 147.658 180.235 147.734 180.156 147.788C180.078 147.842 179.985 147.871 179.89 147.871Z" fill="white"/>
<path d="M193.33 168.174V138.961C193.33 138.933 193.331 138.906 193.335 138.879C193.349 138.541 193.462 138.213 193.66 137.938C193.858 137.662 194.132 137.45 194.449 137.329C194.651 137.248 194.867 137.208 195.084 137.208H198.535C199 137.209 199.446 137.393 199.775 137.722C200.104 138.05 200.289 138.496 200.289 138.961V168.174C200.289 168.639 200.104 169.084 199.775 169.413C199.446 169.741 199 169.926 198.535 169.927H195.084C194.619 169.926 194.173 169.741 193.844 169.413C193.516 169.084 193.331 168.639 193.33 168.174Z" fill="#E5E5E5"/>
<path d="M191.457 149.942V142.931C191.458 142.528 191.618 142.142 191.903 141.858C192.188 141.573 192.574 141.413 192.977 141.412H201.863C202.266 141.413 202.652 141.573 202.937 141.858C203.222 142.142 203.382 142.528 203.383 142.931V149.942C203.382 150.344 203.222 150.731 202.937 151.015C202.652 151.3 202.266 151.46 201.863 151.461H192.977C192.574 151.46 192.188 151.3 191.903 151.015C191.618 150.731 191.458 150.344 191.457 149.942Z" fill="#2F2E41"/>
<path d="M198.256 150.721C198.132 150.721 198.013 150.671 197.925 150.584C197.838 150.496 197.788 150.377 197.788 150.253V141.607C197.788 141.483 197.837 141.364 197.925 141.277C198.013 141.189 198.132 141.14 198.256 141.14C198.38 141.14 198.499 141.189 198.586 141.277C198.674 141.364 198.723 141.483 198.723 141.607V150.253C198.723 150.377 198.674 150.496 198.586 150.584C198.499 150.671 198.38 150.721 198.256 150.721Z" fill="white"/>
<path d="M182.277 116.74L156.71 103.568C156.298 103.354 155.987 102.985 155.846 102.543C155.704 102.1 155.744 101.62 155.956 101.206L157.537 98.1402C157.751 97.728 158.12 97.4173 158.562 97.276C159.005 97.1348 159.486 97.1746 159.899 97.3866L185.467 110.56C185.595 110.626 185.714 110.708 185.822 110.804C186.115 111.062 186.314 111.41 186.386 111.794C186.459 112.177 186.4 112.574 186.221 112.921L184.64 115.987C184.534 116.192 184.389 116.374 184.213 116.522C184.037 116.671 183.834 116.784 183.614 116.853C183.44 116.908 183.259 116.935 183.077 116.936C182.798 116.935 182.524 116.868 182.277 116.74Z" fill="#E5E5E5"/>
<path d="M182.774 117.498L170.344 112.593C169.929 112.385 169.614 112.02 169.467 111.58C169.32 111.139 169.354 110.658 169.561 110.243L172.396 104.404C172.606 103.99 172.97 103.675 173.411 103.528C173.633 103.455 173.867 103.427 174.099 103.445C174.332 103.463 174.559 103.528 174.766 103.635L185.991 110.435C186.035 110.457 186.075 110.485 186.111 110.518C186.397 110.775 186.539 111.393 186.654 111.889L186.672 111.966C186.703 112.099 186.73 112.214 186.757 112.294L186.766 112.325C186.776 112.358 186.787 112.392 186.794 112.423C186.894 112.828 186.846 113.255 186.658 113.628L185.11 116.71C184.963 117 184.738 117.244 184.46 117.415C184.183 117.586 183.863 117.677 183.537 117.679C183.272 117.679 183.011 117.617 182.774 117.498Z" fill="#2F2E41"/>
<path d="M191.943 101.497C198.855 101.497 204.458 95.898 204.458 88.9907C204.458 82.0834 198.855 76.4839 191.943 76.4839C185.032 76.4839 179.429 82.0834 179.429 88.9907C179.429 95.898 185.032 101.497 191.943 101.497Z" fill="#E5E5E5"/>
<path d="M192.674 95.7293L192.687 95.2619C191.817 95.2377 191.05 95.1832 190.473 94.7624C190.31 94.6363 190.176 94.4765 190.08 94.2939C189.984 94.1113 189.928 93.9102 189.917 93.7042C189.906 93.5783 189.925 93.4518 189.972 93.3345C190.019 93.2172 190.092 93.1122 190.186 93.0277C190.569 92.7048 191.184 92.8093 191.633 93.015L192.02 93.1923L191.278 87.7729L190.815 87.8364L191.446 92.4463C190.836 92.2671 190.271 92.3443 189.884 92.6708C189.736 92.8004 189.619 92.9627 189.544 93.1448C189.468 93.3269 189.436 93.5239 189.449 93.7206C189.463 93.9974 189.537 94.2678 189.666 94.513C189.795 94.7581 189.977 94.9721 190.198 95.1398C190.938 95.6807 191.9 95.7076 192.674 95.7293Z" fill="#2F2E41"/>
<path d="M188.523 88.2339H186.004V88.7013H188.523V88.2339Z" fill="#2F2E41"/>
<path d="M196.473 88.2339H193.955V88.7013H196.473V88.2339Z" fill="#2F2E41"/>
<path d="M180.535 143.509C179.709 143.461 179.064 142.103 179.064 140.401V118.51C179.064 117.444 179.198 116.383 179.463 115.35L179.463 115.35C179.56 114.978 179.674 114.609 179.803 114.253C180.588 112.061 181.966 110.129 183.784 108.673C183.989 108.505 184.204 108.343 184.422 108.191C185.481 107.444 186.649 106.866 187.885 106.477C187.851 106.323 187.833 106.166 187.833 106.008C187.834 105.42 188.068 104.855 188.484 104.439C188.901 104.023 189.465 103.789 190.054 103.788H193.328C193.917 103.789 194.481 104.023 194.898 104.439C195.314 104.855 195.549 105.42 195.549 106.008C195.549 106.166 195.532 106.322 195.498 106.476C198.056 107.286 200.29 108.889 201.876 111.052C203.462 113.216 204.317 115.828 204.318 118.51V140.401C204.318 142.147 203.65 143.515 202.798 143.515H180.584C180.568 143.515 180.551 143.513 180.535 143.509Z" fill="#2F2E41"/>
<path d="M194.996 145.508C194.851 145.253 194.771 144.965 194.766 144.672L194.274 115.93C194.27 115.7 194.311 115.471 194.396 115.257C194.48 115.042 194.606 114.847 194.766 114.682L194.766 114.681C194.926 114.515 195.117 114.383 195.328 114.291C195.54 114.199 195.767 114.15 195.997 114.146L199.448 114.088C199.883 114.08 200.305 114.234 200.633 114.52C200.96 114.806 201.17 115.204 201.22 115.635C201.228 115.693 201.232 115.751 201.232 115.809L201.726 144.553C201.732 145.017 201.554 145.466 201.231 145.8C200.908 146.134 200.465 146.326 200.001 146.335L196.55 146.394C196.236 146.399 195.925 146.319 195.652 146.163C195.379 146.007 195.152 145.781 194.996 145.508Z" fill="#717182"/>
<path d="M193.545 125.77C193.415 125.54 193.338 125.284 193.32 125.02L193.467 111.704C193.431 111.24 193.581 110.782 193.883 110.429C194.185 110.075 194.615 109.856 195.079 109.819L198.519 109.55C198.938 109.518 199.354 109.636 199.694 109.884C199.729 109.91 199.764 109.943 199.799 109.966C199.885 110.038 199.974 110.105 200.067 110.167L200.142 110.22C200.636 110.57 201.197 110.967 201.224 111.353L203.294 124.345C203.325 124.716 203.235 125.087 203.037 125.403C202.991 125.48 202.938 125.554 202.879 125.622C202.827 125.683 202.771 125.74 202.71 125.792C202.425 126.048 202.063 126.203 201.68 126.232L195.205 126.649C194.873 126.675 194.541 126.606 194.247 126.45C193.954 126.294 193.71 126.058 193.545 125.77Z" fill="#2F2E41"/>
<path d="M181.42 140.438C181.296 140.438 181.177 140.389 181.09 140.301C181.002 140.214 180.953 140.095 180.952 139.971V117.303C180.952 117.179 181.002 117.06 181.089 116.973C181.177 116.885 181.296 116.836 181.42 116.836C181.544 116.836 181.663 116.885 181.751 116.973C181.838 117.06 181.888 117.179 181.888 117.303V139.971C181.888 140.095 181.838 140.214 181.751 140.301C181.663 140.389 181.544 140.438 181.42 140.438Z" fill="white"/>
<path d="M203.293 86.0197L181.553 78.0714C181.437 78.0292 181.331 77.9648 181.241 77.8817C181.151 77.7986 181.077 77.6985 181.026 77.5872C180.974 77.4759 180.945 77.3554 180.94 77.2328C180.934 77.1101 180.953 76.9877 180.996 76.8724L181.069 76.5249C182.767 71.8866 188.395 68.9675 193.036 70.6643L199.726 73.1102C204.367 74.807 206.384 80.2994 204.686 84.9377L204.493 85.463C204.407 85.6959 204.233 85.8853 204.008 85.9897C203.783 86.0941 203.526 86.1049 203.293 86.0197Z" fill="#2F2E41"/>
<path d="M204.464 86.4607C174.162 87.5781 171.515 83.7731 180.747 77.7898L182.706 74.188L205.154 82.3671L204.464 86.4607Z" fill="#2F2E41"/>
<path d="M198.522 72.5399C198.69 71.9837 197.973 71.2768 196.922 70.961C195.871 70.6452 194.883 70.84 194.716 71.3962C194.548 71.9524 195.265 72.6593 196.316 72.9751C197.367 73.2909 198.355 73.0961 198.522 72.5399Z" fill="#2F2E41"/>
<path d="M66.3112 0C44.5846 0 26.9114 17.6624 26.9114 39.3757C26.9052 44.9338 28.0828 50.4296 30.366 55.4977C36.5407 69.1942 50.3275 78.7515 66.3112 78.7515C76.7589 78.7457 86.777 74.5953 94.1646 67.2122C101.552 59.8291 105.705 49.8171 105.711 39.3757C105.711 17.6624 88.0347 0 66.3112 0ZM98.909 55.2048C95.9338 61.3157 91.3002 66.4681 85.5365 70.0744C79.7729 73.6807 73.1112 75.5959 66.3112 75.6014C50.9516 75.6014 37.7921 66.0032 32.5251 52.4926C30.8927 48.3121 30.0578 43.8632 30.0634 39.3757C30.0634 19.4012 46.3245 3.15006 66.3112 3.15006C86.2979 3.15006 102.559 19.4012 102.559 39.3757C102.566 44.8612 101.317 50.2756 98.909 55.2048Z" fill="#717182"/>
<path d="M66.3111 78.8682C58.8481 78.8622 51.5389 76.7467 45.2276 72.7661C38.9164 68.7855 33.8603 63.102 30.6434 56.372C30.5149 56.1037 30.4592 55.8064 30.4817 55.5098C30.5041 55.2131 30.604 54.9276 30.7714 54.6817L30.7925 54.6507C30.9597 54.4088 31.1875 54.215 31.4533 54.0888C31.719 53.9627 32.0133 53.9087 32.3066 53.9321C32.5998 53.9555 32.8818 54.0557 33.1241 54.2224C33.3664 54.3892 33.5606 54.6167 33.6871 54.8821C39.6646 67.3976 52.4703 75.4846 66.3111 75.4846C72.6362 75.4685 78.8471 73.7999 84.3278 70.6445C89.8085 67.4891 94.3684 62.9564 97.5553 57.4962C97.7034 57.2397 97.9169 57.0271 98.1739 56.8798C98.431 56.7325 98.7225 56.6559 99.0188 56.6577C99.312 56.657 99.6 56.7343 99.8533 56.8819C100.107 57.0295 100.316 57.2419 100.46 57.4972L100.478 57.5295C100.624 57.7872 100.7 58.0785 100.698 58.3745C100.697 58.6705 100.618 58.961 100.469 59.2171C96.9827 65.1833 91.9965 70.1353 86.005 73.5823C80.0134 77.0292 73.2245 78.8514 66.3111 78.8682Z" fill="#717182"/>
<path d="M57.4307 42.9771C58.5016 42.9701 59.5418 43.3349 60.3735 44.009C61.2053 44.6832 61.7772 45.625 61.9915 46.6736C62.2058 47.7222 62.0493 48.8127 61.5487 49.7589C61.0481 50.705 60.2344 51.4482 59.2465 51.8615C58.2587 52.2748 57.1579 52.3327 56.1321 52.0252C55.1063 51.7177 54.2191 51.0639 53.622 50.1754C53.0248 49.287 52.7547 48.2189 52.8578 47.1536C52.9609 46.0883 53.4308 45.0917 54.1873 44.3341C54.6112 43.9048 55.1162 43.5638 55.6729 43.3308C56.2297 43.0979 56.8271 42.9776 57.4307 42.9771ZM57.4307 41.0083C56.1317 41.0076 54.8617 41.3919 53.7812 42.1125C52.7008 42.8332 51.8584 43.8578 51.3607 45.057C50.8629 46.2561 50.7322 47.5758 50.9849 48.8491C51.2376 50.1225 51.8625 51.2924 52.7806 52.2109C53.6986 53.1293 54.8685 53.7551 56.1424 54.0091C57.4163 54.263 58.7369 54.1337 59.9373 53.6376C61.1377 53.1414 62.1639 52.3007 62.8862 51.2216C63.6084 50.1426 63.9943 48.8738 63.995 47.5756C63.9959 45.8348 63.3049 44.1649 62.0738 42.9333C60.8428 41.7016 59.1726 41.0092 57.4307 41.0083ZM71.1151 31.6214C71.7092 31.6244 72.2802 31.3914 72.7024 30.9737C73.1246 30.556 73.3635 29.9878 73.3665 29.394C73.3666 29.3865 73.3666 29.3789 73.3665 29.3713C73.3693 29.0805 73.3147 28.7919 73.2059 28.5221C73.0971 28.2524 72.9362 28.0066 72.7324 27.799C72.5285 27.5914 72.2858 27.4259 72.0179 27.312C71.7501 27.1982 71.4625 27.1381 71.1714 27.1354C71.1574 27.1352 71.1433 27.1352 71.1292 27.1354C70.5339 27.1297 69.9609 27.3607 69.536 27.7773C69.1111 28.194 68.8693 28.7623 68.8637 29.3572C68.8581 29.952 69.0891 30.5248 69.5061 30.9494C69.923 31.374 70.4916 31.6157 71.0869 31.6213C71.0963 31.6214 71.1057 31.6214 71.1151 31.6214ZM75.822 42.9771C76.8929 42.9701 77.933 43.3349 78.7648 44.009C79.5966 44.6832 80.1685 45.625 80.3828 46.6736C80.5971 47.7222 80.4406 48.8127 79.94 49.7589C79.4394 50.705 78.6257 51.4482 77.6378 51.8615C76.6499 52.2748 75.5492 52.3327 74.5234 52.0252C73.4976 51.7177 72.6104 51.0639 72.0132 50.1754C71.4161 49.287 71.146 48.2189 71.2491 47.1536C71.3522 46.0883 71.8221 45.0917 72.5785 44.3341C73.0025 43.9048 73.5075 43.5638 74.0642 43.3308C74.621 43.0979 75.2184 42.9776 75.822 42.9771ZM75.822 41.0083C74.5237 41.0083 73.2545 41.393 72.1751 42.1139C71.0956 42.8347 70.2542 43.8593 69.7574 45.058C69.2605 46.2568 69.1305 47.5758 69.3838 48.8484C69.6371 50.121 70.2623 51.2899 71.1803 52.2074C72.0984 53.1248 73.268 53.7497 74.5413 54.0028C75.8147 54.2559 77.1346 54.126 78.334 53.6295C79.5335 53.1329 80.5587 52.2921 81.28 51.2133C82.0013 50.1344 82.3863 48.8661 82.3863 47.5686C82.3863 46.707 82.2165 45.854 81.8866 45.058C81.5567 44.2621 81.0732 43.5389 80.4636 42.9297C79.8541 42.3206 79.1304 41.8373 78.334 41.5076C77.5376 41.178 76.684 41.0083 75.822 41.0083Z" fill="#717182"/>
<path d="M74.5063 36.1359H71.1292L69.0536 31.91C68.8862 31.6137 68.6522 31.3602 68.3701 31.1696C68.088 30.9789 67.7655 30.8563 67.4279 30.8113C67.0904 30.7663 66.747 30.8002 66.4248 30.9103C66.1026 31.0205 65.8103 31.2038 65.571 31.4459L60.5264 36.3046C60.1135 36.7258 59.8791 37.29 59.8721 37.8796C59.8721 39.1031 60.7586 39.5391 61.1737 39.7851C64.3749 41.6274 65.5006 41.8313 65.5006 42.7524V47.3861C65.5006 47.6844 65.6192 47.9706 65.8303 48.1816C66.0414 48.3926 66.3278 48.5111 66.6263 48.5111C66.9249 48.5111 67.2112 48.3926 67.4223 48.1816C67.6334 47.9706 67.752 47.6844 67.752 47.3861V41.0578C67.752 40.1297 65.6132 39.3703 64.3538 38.3859L67.7942 34.7648C69.1099 36.7687 69.715 38.3859 70.4678 38.3859H74.5063C74.8048 38.3864 75.0913 38.2683 75.3028 38.0577C75.5142 37.847 75.6333 37.5611 75.6338 37.2627C75.6343 36.9643 75.5161 36.678 75.3054 36.4667C75.0946 36.2553 74.8085 36.1364 74.5099 36.1359L74.5063 36.1359Z" fill="#717182"/>
<path d="M34.62 99.9849C33.6503 99.9849 32.8474 102.806 32.6918 106.506H14.036C13.8804 102.806 13.0775 99.9849 12.1077 99.9849C11.0266 99.9849 10.1501 103.489 10.1501 107.81C10.1501 112.132 11.0266 115.636 12.1077 115.636C13.0775 115.636 13.8804 112.814 14.036 109.115H32.6918C32.8474 112.814 33.6503 115.636 34.62 115.636C35.7012 115.636 36.5776 112.132 36.5776 107.81C36.5776 103.489 35.7012 99.9849 34.62 99.9849Z" fill="#717182"/>
<path d="M43.7074 96.2568C40.9423 91.3039 36.4656 87.5281 31.1155 85.6364C25.7654 83.7447 19.9088 83.8668 14.6422 85.9798C9.37572 88.0929 5.06045 92.0519 2.50443 97.1157C-0.0515852 102.18 -0.673071 108.001 0.756343 113.49C2.18576 118.978 5.56805 123.758 10.2699 126.934C14.9718 130.11 20.6708 131.464 26.2998 130.743C31.9289 130.022 37.1019 127.276 40.8504 123.017C44.5989 118.759 46.6658 113.281 46.664 107.61C46.6627 103.635 45.645 99.7274 43.7074 96.2568ZM23.3267 129.065C17.6704 129.036 12.2565 126.766 8.27231 122.754C4.2881 118.741 2.05885 113.313 2.07349 107.66C2.08812 102.007 4.34545 96.5911 8.35038 92.5992C12.3553 88.6073 17.7809 86.3657 23.4372 86.3661C29.0936 86.3665 34.5189 88.6087 38.5233 92.6012C42.5277 96.5936 44.7843 102.01 44.7982 107.663C44.8121 113.316 42.5822 118.744 38.5974 122.756C34.6127 126.768 29.1985 129.036 23.5422 129.065C23.4704 129.065 23.3985 129.065 23.3267 129.065Z" fill="#717182"/>
<path d="M23.3381 131.049C18.8914 131.051 14.5362 129.788 10.7821 127.406C10.5946 127.286 10.45 127.11 10.3689 126.903L10.3571 126.873C10.2757 126.668 10.2623 126.442 10.3189 126.229C10.3756 126.016 10.4993 125.826 10.6719 125.689C10.8387 125.549 11.0462 125.466 11.2637 125.453C11.4812 125.439 11.6972 125.496 11.8799 125.615C15.87 128.153 20.5909 129.295 25.3009 128.861C30.0108 128.426 34.4429 126.44 37.9009 123.215C41.3589 119.99 43.6468 115.708 44.4053 111.042C45.1637 106.376 44.3497 101.591 42.0911 97.4376C41.9852 97.2472 41.9433 97.0278 41.9716 96.8118C41.9999 96.5958 42.0969 96.3946 42.2483 96.2379C42.3979 96.0753 42.5957 95.965 42.8127 95.9233C43.0296 95.8816 43.2543 95.9107 43.4535 96.0062L43.4827 96.0199C43.6826 96.1134 43.8475 96.2679 43.9539 96.4612C45.8872 100.029 46.8601 104.038 46.7775 108.095C46.6948 112.152 45.5594 116.118 43.4823 119.605C41.4053 123.091 38.4579 125.979 34.9286 127.985C31.3993 129.991 27.4093 131.047 23.3491 131.049H23.3381Z" fill="#717182"/>
<path d="M109.285 84.2905C106.219 84.2892 103.184 84.8913 100.352 86.0626C97.5193 87.2338 94.9456 88.9511 92.7775 91.1166C90.6094 93.282 88.8894 95.8531 87.7157 98.6829C86.542 101.513 85.9376 104.546 85.937 107.609C85.9365 110.673 86.5397 113.706 87.7124 116.536C88.8851 119.367 90.6042 121.938 92.7715 124.105C94.9388 126.271 97.5119 127.989 100.344 129.161C103.176 130.334 106.211 130.937 109.276 130.937H109.285C109.436 130.937 109.584 130.937 109.735 130.93C115.885 130.812 121.738 128.272 126.024 123.864C130.31 119.455 132.681 113.534 132.621 107.387C132.562 101.241 130.077 95.3666 125.707 91.0414C121.337 86.7163 115.435 84.2901 109.285 84.2905ZM114.041 128.536C111.095 129.205 108.042 129.245 105.079 128.653C102.117 128.061 99.3133 126.852 96.8509 125.103C94.3885 123.355 92.323 121.107 90.7893 118.506C89.2557 115.905 88.2885 113.01 87.951 110.01C87.6134 107.01 87.913 103.973 88.8303 101.096C89.7476 98.2201 91.2619 95.5696 93.2742 93.3182C95.2866 91.0667 97.7516 89.265 100.508 88.0307C103.265 86.7964 106.251 86.1574 109.272 86.1554H109.285C114.565 86.155 119.66 88.0992 123.596 91.6163C127.532 95.1333 130.034 99.9767 130.622 105.221C131.211 110.465 129.845 115.741 126.786 120.043C123.727 124.344 119.19 127.368 114.041 128.536Z" fill="#717182"/>
<path d="M109.285 131.053C103.497 131.053 97.9128 128.914 93.6076 125.048C89.3025 121.181 86.5799 115.861 85.9637 110.109C85.3475 104.357 86.8811 98.5807 90.2696 93.8909C93.6581 89.2012 98.662 85.9292 104.319 84.7045C104.458 84.6747 104.602 84.6728 104.742 84.699L104.79 84.7082C105.025 84.7537 105.237 84.8787 105.39 85.0622C105.543 85.2456 105.628 85.4762 105.631 85.7151C105.634 85.9541 105.554 86.1866 105.405 86.3736C105.256 86.5605 105.048 86.6904 104.814 86.7414C99.6574 87.8462 95.0922 90.8189 91.9978 95.0869C88.9033 99.3549 87.4986 104.616 88.0541 109.858C88.6096 115.099 91.0861 119.949 95.0065 123.475C98.927 127 104.014 128.951 109.288 128.952C109.494 128.95 109.695 128.949 109.898 128.943C110.125 128.934 110.348 129.004 110.529 129.143C110.709 129.281 110.834 129.479 110.883 129.701C110.937 129.915 110.913 130.141 110.816 130.34C110.719 130.538 110.554 130.696 110.352 130.785C110.215 130.848 110.077 130.909 109.938 130.97C109.821 131.022 109.695 131.05 109.568 131.052C109.473 131.053 109.38 131.053 109.285 131.053Z" fill="#717182"/>
<path d="M120.798 106.622C120.176 106.591 119.561 106.764 119.047 107.115C118.533 107.465 118.147 107.975 117.95 108.565H115.652L113.974 103.522C113.911 103.333 113.791 103.169 113.63 103.052C113.469 102.935 113.275 102.873 113.076 102.873H113.058C112.856 102.876 112.66 102.944 112.501 103.068C112.341 103.191 112.225 103.363 112.172 103.558L109.543 112.727L106.453 94.1811C106.417 93.9665 106.308 93.7706 106.145 93.6266C105.982 93.4825 105.774 93.399 105.556 93.39C105.339 93.381 105.124 93.4471 104.95 93.5771C104.775 93.7072 104.651 93.8934 104.597 94.1044L101.466 108.565H97.9565C97.7058 108.565 97.4654 108.664 97.2881 108.841C97.1108 109.019 97.0112 109.259 97.0112 109.509C97.0112 109.76 97.1108 110 97.2881 110.177C97.4654 110.355 97.7058 110.454 97.9565 110.454H102.21C102.421 110.454 102.626 110.384 102.792 110.255C102.958 110.125 103.075 109.944 103.126 109.74L105.336 98.9815L108.367 117.162C108.401 117.374 108.508 117.567 108.668 117.71C108.828 117.853 109.033 117.937 109.247 117.947H109.3C109.506 117.947 109.705 117.88 109.87 117.756C110.034 117.633 110.153 117.459 110.21 117.262L113.146 107.012L114.074 109.805C114.137 109.993 114.258 110.157 114.419 110.273C114.58 110.39 114.773 110.453 114.972 110.454H117.991C118.172 110.932 118.478 111.352 118.878 111.67C119.277 111.988 119.756 112.193 120.262 112.262C120.768 112.331 121.284 112.261 121.754 112.062C122.224 111.862 122.632 111.539 122.934 111.127C123.236 110.715 123.42 110.229 123.469 109.721C123.517 109.212 123.427 108.7 123.208 108.239C122.989 107.777 122.65 107.383 122.225 107.099C121.801 106.814 121.308 106.65 120.798 106.622Z" fill="#717182"/>
<path d="M212.766 170H169.975C169.913 170 169.854 169.975 169.81 169.932C169.766 169.888 169.741 169.828 169.741 169.766C169.741 169.704 169.766 169.645 169.81 169.601C169.854 169.557 169.913 169.533 169.975 169.533H212.766C212.828 169.533 212.888 169.557 212.931 169.601C212.975 169.645 213 169.704 213 169.766C213 169.828 212.975 169.888 212.931 169.932C212.888 169.975 212.828 170 212.766 170Z" fill="#3F3D56"/>
</g>
<defs>
<clipPath id="clip0_3011_7397">
<rect width="213" height="170" fill="white"/>
</clipPath>
</defs>
</svg>
